HIERARCHY
ROOT root
{
	OFFSET 0.000000 0.000000 0.000000
	CHANNELS 6 Xposition Yposition Zposition Zrotation Yrotation Xrotation
	JOINT lhip
	{
		OFFSET 0.058581 -0.082280 -0.017664
		CHANNELS 3 Zrotation Yrotation Xrotation
		JOINT lknee
		{
			OFFSET 0.043451 -0.386469 0.008037
			CHANNELS 3 Zrotation Yrotation Xrotation
			JOINT lankle
			{
				OFFSET -0.014790 -0.426874 -0.037428
				CHANNELS 3 Zrotation Yrotation Xrotation
				JOINT ltoe
				{
					OFFSET 0.041054 -0.060286 0.122042
					CHANNELS 3 Zrotation Yrotation Xrotation
					End Site
					{
						OFFSET 0.000000 0.000000 0.000000
					}
				}
			}
		}
	}
	JOINT rhip
	{
		OFFSET -0.060310 -0.090513 -0.013543
		CHANNELS 3 Zrotation Yrotation Xrotation
		JOINT rknee
		{
			OFFSET -0.043257 -0.383688 -0.004843
			CHANNELS 3 Zrotation Yrotation Xrotation
			JOINT rankle
			{
				OFFSET 0.019056 -0.420046 -0.034562
				CHANNELS 3 Zrotation Yrotation Xrotation
				JOINT rtoe
				{
					OFFSET -0.034840 -0.062106 0.130323
					CHANNELS 3 Zrotation Yrotation Xrotation
					End Site
					{
						OFFSET 0.000000 0.000000 0.000000
					}
				}
			}
		}
	}
	JOINT lowerback
	{
		OFFSET 0.004439 0.124404 -0.038385
		CHANNELS 3 Zrotation Yrotation Xrotation
		JOINT upperback
		{
			OFFSET 0.004488 0.137956 0.026820
			CHANNELS 3 Zrotation Yrotation Xrotation
			JOINT chest
			{
				OFFSET -0.002265 0.056032 0.002855
				CHANNELS 3 Zrotation Yrotation Xrotation
				JOINT lowerneck
				{
					OFFSET -0.013390 0.211636 -0.033468
					CHANNELS 3 Zrotation Yrotation Xrotation
					JOINT upperneck
					{
						OFFSET 0.010113 0.088937 0.050410
						CHANNELS 3 Zrotation Yrotation Xrotation
						End Site
						{
							OFFSET 0.000000 0.000000 0.000000
						}
					}
				}
				JOINT lclavicle
				{
					OFFSET 0.071702 0.114000 -0.018898
					CHANNELS 3 Zrotation Yrotation Xrotation
					JOINT lshoulder
					{
						OFFSET 0.122921 0.045205 -0.019046
						CHANNELS 3 Zrotation Yrotation Xrotation
						JOINT lelbow
						{
							OFFSET 0.255332 -0.015649 -0.022946
							CHANNELS 3 Zrotation Yrotation Xrotation
							JOINT lwrist
							{
								OFFSET 0.265709 0.012698 -0.007375
								CHANNELS 3 Zrotation Yrotation Xrotation
								End Site
								{
									OFFSET 0.000000 0.000000 0.000000
								}
							}
						}
					}
				}
				JOINT rclavicle
				{
					OFFSET -0.082954 0.112472 -0.023707
					CHANNELS 3 Zrotation Yrotation Xrotation
					JOINT rshoulder
					{
						OFFSET -0.113228 0.046853 -0.008472
						CHANNELS 3 Zrotation Yrotation Xrotation
						JOINT relbow
						{
							OFFSET -0.260127 -0.014369 -0.031269
							CHANNELS 3 Zrotation Yrotation Xrotation
							JOINT rwrist
							{
								OFFSET -0.269108 0.006794 -0.006027
								CHANNELS 3 Zrotation Yrotation Xrotation
								End Site
								{
									OFFSET 0.000000 0.000000 0.000000
								}
							}
						}
					}
				}
			}
		}
	}
}
MOTION
Frames: 10
Frame Time: 0.033333
-1.535337 -0.232833 1.006271 -94.820298 -1.718843 81.481766 -0.567121 5.672219 9.110719 -1.146786 -8.198854 -0.763391 2.232624 11.591418 -3.094020 0.000000 -0.000000 0.000000 0.395616 -2.061128 -17.684361 -2.629173 -14.742513 42.681254 -1.343949 -18.325146 -7.897107 0.000000 -0.000000 0.000000 -4.547086 -6.000462 12.364898 1.714585 -3.636034 0.287551 -1.176699 -2.929365 2.010243 3.194591 -19.309820 -0.598607 5.308466 -24.887165 2.279847 -22.324579 -7.388452 1.171369 -41.338582 -17.229704 3.534313 7.469432 -20.582043 1.794422 -3.832746 1.297849 3.394271 22.328594 6.175921 -0.008627 51.697216 -3.101416 12.106210 -12.087383 23.574044 -0.235206 6.830032 0.770163 0.599832 
-1.557769 -0.229832 1.005560 -96.732553 -1.559972 81.717358 -0.142162 6.721816 10.719993 -0.964573 -7.209921 -0.480078 1.423522 11.307049 -4.233955 0.000000 -0.000000 0.000000 1.700185 -2.391330 -18.407552 -3.150472 -17.616839 31.869919 -1.602928 -20.471574 -8.093857 0.000000 -0.000000 0.000000 -4.435507 -6.636139 12.455977 1.474322 -3.947087 0.248437 -0.778937 -3.339925 2.157539 2.912273 -19.890289 -1.329676 5.878938 -25.037007 1.799613 -21.660212 -8.042084 1.224550 -41.367110 -18.708947 3.557031 7.171140 -22.246625 2.050677 -3.244934 0.245423 3.194582 22.033260 6.419043 0.287487 52.002689 -3.431133 11.804425 -12.365434 23.415701 -0.962146 5.993850 1.224764 -0.037650 
-1.579392 -0.225934 1.003748 -99.119594 -1.999362 82.288579 -0.554880 7.654330 11.806579 -0.698133 -5.788510 0.030660 1.096186 11.306881 -5.499011 0.000000 -0.000000 0.000000 3.055224 -3.030570 -18.823189 -3.745708 -20.412199 20.916910 -1.708888 -22.745636 -8.180862 0.000000 -0.000000 0.000000 -4.707253 -6.874366 12.415614 1.131991 -4.131916 -0.479245 -0.569655 -3.781435 2.415344 2.341157 -20.214132 -1.412888 6.524724 -25.100950 1.638500 -20.978648 -8.242478 1.116504 -41.568991 -19.845294 3.761254 6.751108 -23.980299 3.205519 -2.871555 -0.367298 3.901022 21.642462 5.967542 0.003140 52.406570 -3.893099 11.950190 -12.207646 24.297815 -0.526622 5.737821 1.280071 -0.552319 
-1.600287 -0.220919 1.001093 -101.819221 -2.734839 83.067551 -1.288119 8.565154 12.453755 -0.545122 -4.327994 1.162346 0.927637 11.161916 -7.060635 0.000000 -0.000000 0.000000 4.808638 -4.142323 -19.249422 -4.342623 -21.780727 11.405142 -1.380755 -23.361943 -7.578307 0.000000 -0.000000 0.000000 -5.144257 -6.647246 12.136383 0.750779 -4.674270 -0.919419 -0.254093 -4.114671 2.327550 2.179543 -20.056009 -1.827347 6.910053 -24.066439 1.525450 -20.454260 -8.485487 1.144676 -41.680210 -20.319449 3.916797 6.097384 -25.981524 4.596672 -2.037430 -1.051059 4.884028 21.156772 5.503652 -0.132709 52.633784 -4.273600 11.957036 -11.849532 26.164144 -0.036181 5.022619 2.056573 -0.820193 
-1.619856 -0.214632 0.997837 -105.236696 -3.967814 84.049386 -2.620407 9.157240 12.779078 -0.519866 -2.966013 2.521065 0.870881 11.455246 -7.897392 0.000000 -0.000000 0.000000 6.217957 -4.896880 -20.290703 -5.901015 -22.014099 5.498689 -1.625602 -23.620150 -6.764355 0.000000 -0.000000 0.000000 -5.897005 -6.201088 11.596803 0.375769 -4.843376 -1.219120 -0.262961 -4.213578 2.058952 1.950363 -19.684042 -1.843965 7.239202 -23.214344 1.205203 -19.966790 -8.412186 1.201154 -41.543278 -20.545266 4.264266 5.142915 -27.977307 5.906302 -2.189703 -1.554360 5.121383 20.902776 5.334858 0.142667 53.034401 -4.467353 12.275217 -12.023036 27.179154 0.027422 5.037887 2.065877 -1.284353 
-1.640489 -0.206969 0.993973 -107.495379 -4.817725 84.604713 -3.050215 9.434321 12.636162 -1.068223 -2.061885 5.636033 -0.022037 11.315876 -8.182611 0.000000 -0.000000 0.000000 6.538440 -4.984116 -20.575635 -6.145084 -21.674718 2.830536 -1.662390 -23.643930 -6.401139 0.000000 -0.000000 0.000000 -5.929149 -6.807558 11.503193 -0.114383 -5.015767 -1.635334 -0.596568 -4.253395 2.140660 1.483266 -19.511878 -2.611330 7.030449 -23.165053 1.590955 -19.786732 -8.299751 1.280396 -41.654355 -20.410795 4.746588 4.764212 -29.648251 7.110527 -1.376714 -2.444545 4.899728 21.001136 5.118228 0.247312 53.039620 -4.761167 12.644719 -11.877750 28.892449 0.487153 4.211459 2.538113 -2.043436 
-1.665038 -0.196009 0.991909 -110.151491 -5.347199 84.429618 -2.575801 9.759194 13.615564 -2.254863 -1.887137 9.118421 -0.219791 11.180145 -8.135672 0.000000 -0.000000 0.000000 6.262585 -3.971291 -19.598065 -5.859847 -21.258446 4.252992 -2.034726 -23.557013 -7.270012 0.000000 -0.000000 0.000000 -5.812305 -7.163297 11.122888 -0.297832 -5.111775 -1.141585 -1.068312 -4.268414 2.189717 1.259821 -18.999615 -3.114256 6.852088 -22.300449 1.289471 -19.611304 -7.906863 1.680963 -42.509812 -19.698752 4.954001 4.868690 -30.394058 7.843047 -1.297380 -2.677914 4.035818 20.823786 5.050020 -0.035885 53.620456 -4.659050 12.623894 -11.572148 29.498123 1.136821 3.915679 2.548131 -2.181148 
-1.690756 -0.182552 0.990046 -112.935447 -5.681529 84.222407 -1.570044 9.877932 13.719933 -3.808451 -0.856459 14.448604 -1.885962 10.589822 -6.023990 0.000000 -0.000000 0.000000 6.281486 -2.877665 -17.514830 -5.853992 -21.054788 6.185300 -2.505205 -23.090049 -7.810438 0.000000 -0.000000 0.000000 -5.617849 -7.585047 10.860695 -0.312444 -5.012501 -1.081359 -1.492588 -3.891779 1.955920 0.794809 -18.589874 -3.048912 6.666709 -21.603698 1.312178 -20.077540 -7.251093 2.182899 -43.666134 -18.343061 5.215262 5.064390 -29.718098 8.136735 -1.580846 -2.935376 3.480914 20.681274 4.706098 0.072290 53.981068 -4.622401 12.731742 -10.684951 29.696878 2.373804 3.598381 2.641906 -2.512046 
-1.718249 -0.165288 0.988415 -116.175061 -6.155222 84.286386 0.797705 10.291236 11.985635 -6.659462 1.630100 22.857112 -4.681991 8.037044 -1.498953 0.000000 -0.000000 0.000000 7.095495 -3.502705 -13.440868 -4.936733 -20.392682 2.822767 -3.727292 -21.749086 -6.206649 0.000000 -0.000000 0.000000 -5.411340 -6.567043 9.387161 -0.441002 -5.181368 -0.306213 -1.802701 -3.745555 1.416258 0.047579 -18.683975 -1.974065 6.563337 -20.519669 1.368852 -21.381714 -6.075025 3.025983 -44.332367 -16.714640 5.020277 4.773772 -28.411886 9.091217 -2.224280 -2.988775 2.722178 21.181431 4.068774 0.411157 53.836678 -4.605194 12.697092 -9.371594 29.374705 4.154213 3.378015 2.663469 -2.823214 
-1.741745 -0.147585 0.986603 -119.448340 -7.051433 84.986497 3.152023 9.516839 5.663934 -9.160701 4.420253 36.685073 -7.573265 4.662888 7.955311 0.000000 -0.000000 0.000000 7.739152 -4.216884 -12.075046 -4.528631 -15.889424 2.377530 -6.265224 -18.779409 -5.893466 0.000000 -0.000000 0.000000 -6.103074 -4.955428 8.475079 -0.017953 -5.429831 -0.930765 -1.996745 -3.653126 1.560012 0.298951 -18.241515 -2.302163 6.516708 -19.661463 2.018057 -22.562085 -3.891700 3.003226 -45.150978 -14.897742 5.540874 3.785031 -27.148941 11.484730 -2.166911 -2.764370 2.296244 22.180759 2.581391 0.607689 53.017709 -3.829408 13.118479 -7.775019 28.738430 6.533291 3.105414 2.523327 -3.009096 
